# xmcd
#
# Track frame offsets:
#	150
#	17945
#	34445
#	53265
#	70537
#	100332
#	130280
#	146907
#	164712
#	180365
#	197815
#	214675
#	234972
#	243015
#	257755
#	273130
#
# Disc length: 3867 seconds
#
# Revision: 1
# Processed by: cddbd v1.5.2PL0 Copyright (c) Steve Scherf et al.
# Submitted via: EasyCDDAExtractor 16.0.0.1
#
DISCID=de0f1910
DTITLE=Janis Joplin - The Essential Janis Joplin
DYEAR=2003
DGENRE=Classic Rock - Blues Rock - Blues;
TTITLE0=Try (Just a Little Bit Harder)
TTITLE1=Maybe
TTITLE2=One Good Man
TTITLE3=Little Girl Blue
TTITLE4=Work Me, Lord
TTITLE5=Tell Mama (live)
TTITLE6=Move Over
TTITLE7=Cry Baby
TTITLE8=A Woman Left Lonely
TTITLE9=Half Moon
TTITLE10=My Baby
TTITLE11=Me and Bobby McGee
TTITLE12=Mercedes Benz
TTITLE13=Trust Me
TTITLE14=Get It While You Can
TTITLE15=Mercedes Benz - Remix
EXTD=
EXTT0=
EXTT1=
EXTT2=
EXTT3=
EXTT4=
EXTT5=
EXTT6=
EXTT7=
EXTT8=
EXTT9=
EXTT10=
EXTT11=
EXTT12=
EXTT13=
EXTT14=
EXTT15=
PLAYORDER=
